<svg width="21" height="20" viewBox="0 0 21 20" fill="none" xmlns="http://www.w3.org/2000/svg">
<path d="M11.8422 10.2025C11.8372 10.4665 11.7539 10.723 11.6029 10.9396C11.4519 11.1562 11.24 11.3231 10.994 11.4191C10.748 11.5151 10.4791 11.536 10.2213 11.479C9.9635 11.422 9.72841 11.2897 9.54585 11.099C9.36329 10.9082 9.24147 10.6676 9.19584 10.4075C9.15021 10.1474 9.18282 9.87969 9.28954 9.63818C9.39626 9.39667 9.57228 9.19229 9.79529 9.05093C10.0183 8.90957 10.2783 8.83761 10.5422 8.84416C10.893 8.85715 11.2249 9.00624 11.4675 9.25981C11.7102 9.51339 11.8446 9.85151 11.8422 10.2025Z" fill="#00715D"/>
<path d="M12.8032 6.02734H8.28237C7.83504 6.02734 7.40603 6.20505 7.08972 6.52136C6.7734 6.83767 6.5957 7.26668 6.5957 7.71401V12.3365C6.5957 12.558 6.63933 12.7773 6.72409 12.982C6.80886 13.1866 6.93309 13.3725 7.08972 13.5292C7.24634 13.6858 7.43227 13.81 7.63691 13.8948C7.84155 13.9796 8.06087 14.0232 8.28237 14.0232H12.8032C13.0247 14.0232 13.244 13.9796 13.4487 13.8948C13.6533 13.81 13.8392 13.6858 13.9959 13.5292C14.1525 13.3725 14.2767 13.1866 14.3615 12.982C14.4462 12.7773 14.4899 12.558 14.4899 12.3365V7.72234C14.4907 7.50021 14.4478 7.28008 14.3634 7.07458C14.2791 6.86909 14.155 6.68225 13.9983 6.52479C13.8416 6.36733 13.6554 6.24234 13.4503 6.15697C13.2453 6.07161 13.0253 6.02756 12.8032 6.02734ZM10.5424 12.4632C10.0948 12.4733 9.65445 12.3498 9.2774 12.1085C8.90035 11.8672 8.60375 11.5191 8.42544 11.1085C8.24714 10.6979 8.19521 10.2435 8.2763 9.80323C8.35739 9.36299 8.56781 8.9569 8.88071 8.63677C9.1936 8.31665 9.59479 8.09702 10.0331 8.0059C10.4713 7.91479 10.9268 7.95633 11.3414 8.12522C11.7559 8.29411 12.1108 8.58269 12.3606 8.95413C12.6104 9.32558 12.7439 9.76303 12.744 10.2107C12.7474 10.5032 12.6932 10.7935 12.5844 11.065C12.4756 11.3365 12.3143 11.5839 12.1099 11.7931C11.9054 12.0022 11.6618 12.1691 11.3928 12.2841C11.1238 12.3991 10.8349 12.4599 10.5424 12.4632ZM12.989 7.95901C12.934 7.95902 12.8796 7.94806 12.8289 7.92677C12.7782 7.90548 12.7323 7.87429 12.6938 7.83502C12.6553 7.79575 12.625 7.74919 12.6047 7.69808C12.5845 7.64697 12.5746 7.59232 12.5757 7.53734C12.5757 7.42551 12.6201 7.31826 12.6992 7.23918C12.7783 7.1601 12.8855 7.11568 12.9974 7.11568C13.1092 7.11568 13.2165 7.1601 13.2955 7.23918C13.3746 7.31826 13.419 7.42551 13.419 7.53734C13.4207 7.59687 13.4095 7.65606 13.3861 7.71085C13.3628 7.76564 13.3279 7.81473 13.2838 7.85478C13.2397 7.89482 13.1875 7.92487 13.1307 7.94286C13.074 7.96085 13.014 7.96636 12.9549 7.95901H12.989Z" fill="#00715D"/>
<path d="M10.5411 1.66417C8.33098 1.65312 6.20698 2.52049 4.63636 4.07548C3.06574 5.63047 2.17717 7.7457 2.16612 9.95583C2.15507 12.166 3.02244 14.29 4.57743 15.8606C6.13242 17.4312 8.24765 18.3198 10.4578 18.3308C11.5521 18.3363 12.6368 18.1262 13.65 17.7124C14.6631 17.2987 15.5849 16.6895 16.3625 15.9195C17.1402 15.1496 17.7587 14.234 18.1825 13.225C18.6063 12.2161 18.8273 11.1335 18.8328 10.0392C18.8383 8.94482 18.6281 7.86011 18.2144 6.84697C17.8007 5.83383 17.1914 4.9121 16.4215 4.13441C15.6515 3.35672 14.7359 2.73829 13.727 2.31445C12.718 1.8906 11.6355 1.66964 10.5411 1.66417ZM15.602 12.2492C15.6043 12.623 15.5324 12.9936 15.3904 13.3395C15.2484 13.6854 15.0392 13.9996 14.7749 14.264C14.5106 14.5284 14.1964 14.7377 13.8505 14.8798C13.5047 15.0219 13.1341 15.0939 12.7603 15.0917H8.32362C7.94982 15.0938 7.57932 15.0217 7.23356 14.8796C6.8878 14.7376 6.57364 14.5284 6.30928 14.2641C6.04493 13.9998 5.83561 13.6857 5.69346 13.34C5.5513 12.9943 5.47913 12.6238 5.48112 12.25V7.8125C5.4788 7.43864 5.55071 7.06804 5.69268 6.72217C5.83466 6.37631 6.04387 6.06207 6.3082 5.79767C6.57252 5.53326 6.8867 5.32396 7.23252 5.18188C7.57834 5.03981 7.94892 4.96779 8.32279 4.97H12.7603C13.1341 4.96779 13.5046 5.03978 13.8504 5.1818C14.1961 5.32383 14.5103 5.53306 14.7746 5.79737C15.0389 6.06169 15.2481 6.37583 15.3901 6.7216C15.5322 7.06736 15.6042 7.43788 15.602 7.81167V12.2492Z" fill="#00715D"/>
</svg>
