<svg width="21" height="20" viewBox="0 0 21 20" fill="none" xmlns="http://www.w3.org/2000/svg">
<path d="M10.4993 1.66406C15.1065 1.66406 18.8327 5.39025 18.8327 9.9974C18.8327 14.6045 15.1065 18.3307 10.4993 18.3307C5.89221 18.3307 2.16602 14.6045 2.16602 9.9974C2.16602 5.39025 5.89221 1.66406 10.4993 1.66406ZM8.97554 14.3903C12.666 14.3903 14.6898 11.3307 14.6898 8.67597V8.41406C15.0827 8.12835 15.4279 7.77121 15.6898 7.36644C15.3327 7.52121 14.9398 7.62835 14.5351 7.68787C14.9517 7.43787 15.2732 7.04501 15.416 6.58073C15.0232 6.80692 14.5946 6.97359 14.1422 7.06882C13.7732 6.67597 13.2493 6.43787 12.6779 6.43787C11.5708 6.43787 10.666 7.34263 10.666 8.44978C10.666 8.60454 10.6779 8.7593 10.7255 8.90216C9.05887 8.81882 7.57078 8.02121 6.58268 6.80692C6.41602 7.10454 6.30887 7.44978 6.30887 7.81882C6.30887 8.5093 6.66602 9.12835 7.20173 9.48549C6.8684 9.48549 6.55887 9.39025 6.29697 9.23549V9.2593C6.29697 10.2355 6.98744 11.045 7.90411 11.2355C7.73744 11.2831 7.55887 11.3069 7.3803 11.3069C7.24935 11.3069 7.1303 11.295 6.99935 11.2712C7.24935 12.0688 7.99935 12.6522 8.8684 12.6641C8.17792 13.1998 7.30887 13.5212 6.3684 13.5212C6.20173 13.5212 6.04697 13.5212 5.89221 13.4974C6.77316 14.0688 7.83268 14.4022 8.96363 14.4022" fill="#00715D"/>
</svg>
